<svg width="59" height="56" viewBox="0 0 59 56" fill="none" xmlns="http://www.w3.org/2000/svg">
<rect y="9.72266" width="59" height="46" rx="20" fill="#F5F6FB"/>
<path d="M29.973 22.6616C29.7822 22.5941 29.5878 22.524 29.3931 22.4518V18.922C30.037 19.1772 30.4893 19.5348 30.5071 19.549C30.9725 19.9306 31.6594 19.8644 32.0433 19.4003C32.4284 18.9348 32.3632 18.2455 31.8977 17.8603C31.8337 17.8074 30.8175 16.9818 29.3932 16.6337V16.0977C29.3932 15.4936 28.9034 15.0039 28.2995 15.0039C27.6955 15.0039 27.2057 15.4936 27.2057 16.0977V16.5831C27.0899 16.608 26.9736 16.6361 26.8565 16.6713C25.5991 17.0501 24.6914 18.1099 24.4282 19.5064C24.1726 20.8632 24.6147 22.2163 25.5546 22.9534C25.9835 23.2897 26.5062 23.5982 27.2058 23.9187V28.5446C26.7105 28.4751 26.3391 28.307 25.7474 27.9199C25.242 27.5891 24.5642 27.7308 24.2333 28.2364C23.9027 28.7419 24.0442 29.4197 24.5499 29.7505C25.5888 30.4301 26.3214 30.6688 27.2058 30.745V31.4251C27.2058 32.0292 27.6956 32.5189 28.2996 32.5189C28.9035 32.5189 29.3933 32.0292 29.3933 31.4251V30.6403C31.2125 30.1792 32.3785 28.6253 32.6361 27.0933C32.9672 25.1227 31.897 23.3418 29.973 22.6616V22.6616ZM27.2057 21.4442C27.0973 21.3748 26.9962 21.3042 26.9045 21.2323C26.6093 21.0007 26.475 20.4576 26.5779 19.9116C26.6124 19.7285 26.752 19.1848 27.2057 18.8962V21.4442ZM30.4787 26.7309C30.3787 27.3251 30.0103 27.9497 29.3931 28.3025V24.7821C30.5802 25.2813 30.5506 26.3026 30.4787 26.7309Z" fill="#071F41"/>
<path d="M54.7903 23.3685L47.8438 18.7812V1.09375C47.8438 0.489672 47.354 0 46.75 0H20.5C19.896 0 19.4062 0.489672 19.4062 1.09375V5.25H15.25C14.646 5.25 14.1562 5.73967 14.1562 6.34375V18.7813L7.20973 23.3686C6.90327 23.571 6.71875 23.9139 6.71875 24.2812V54.9062C6.71875 55.5103 7.20853 56 7.8125 56H26.0781C26.6821 56 27.1719 55.5103 27.1719 54.9062C27.1719 54.3022 26.6821 53.8125 26.0781 53.8125H10.4531L26.3994 37.8663L30.3973 40.5065C30.58 40.6271 30.79 40.6875 31 40.6875C31.21 40.6875 31.42 40.6271 31.6028 40.5065L35.6007 37.8663L51.547 53.8125H35.9219C35.3179 53.8125 34.8281 54.3022 34.8281 54.9062C34.8281 55.5103 35.3179 56 35.9219 56H54.1875C54.7915 56 55.2812 55.5103 55.2812 54.9062V24.2812C55.2812 23.9139 55.0967 23.571 54.7903 23.3685V23.3685ZM52.2027 24.2812L47.8438 27.1598V21.4027L52.2027 24.2812ZM21.5938 2.1875H45.6562V28.6044L42.5938 30.6269V6.34375C42.5938 5.73967 42.104 5.25 41.5 5.25H21.5938V2.1875ZM14.1562 21.4027V27.1598L9.79733 24.2812L14.1562 21.4027ZM8.90625 52.2657V26.3143L24.536 36.6359L8.90625 52.2657ZM31 38.283L16.3438 28.6043V7.4375H40.4062V32.0714L31 38.283ZM53.0938 26.3143V52.2657L37.464 36.6358L53.0938 26.3143Z" fill="#071F41"/>
<path d="M31 53.8125C30.7123 53.8125 30.4302 53.9295 30.2267 54.133C30.0233 54.3364 29.9062 54.6186 29.9062 54.9062C29.9062 55.1939 30.0232 55.4761 30.2267 55.6795C30.4303 55.883 30.7123 56 31 56C31.2877 56 31.5698 55.883 31.7732 55.6795C31.9766 55.4761 32.0938 55.1939 32.0938 54.9062C32.0938 54.6186 31.9767 54.3364 31.7732 54.133C31.5698 53.9295 31.2877 53.8125 31 53.8125Z" fill="#071F41"/>
</svg>
