<svg width="59" height="56" viewBox="0 0 59 56" fill="none" xmlns="http://www.w3.org/2000/svg">
<rect y="9.72266" width="59" height="46" rx="20" fill="#F5F6FB"/>
<g clip-path="url(#clip0)">
<path d="M54.9915 27.517L52.7424 25.2679V3.8683L54.6321 1.97862C55.0026 1.60817 55.0026 1.00748 54.6321 0.637138C54.2615 0.266684 53.661 0.266684 53.2905 0.637138L51.4008 2.52681H30.001L27.7521 0.27784C27.3816 -0.0926134 26.7809 -0.0926134 26.4106 0.27784C26.0401 0.648294 26.0401 1.24898 26.4106 1.61933L28.5635 3.77227L21.8865 32.0664C21.3359 32.7544 21.1516 33.6715 21.4095 34.528C21.6965 35.481 22.4806 36.1959 23.4559 36.3938L27.7139 37.2581C28.5211 37.4221 29.2077 37.9323 29.5973 38.6581C29.9869 39.3839 30.0329 40.2379 29.7234 41.0013C29.22 42.243 27.9028 42.943 26.5925 42.665L10.6404 39.2854C8.23853 38.7764 5.81686 40.1399 5.00584 42.457C4.53553 43.8006 4.67279 45.2793 5.38231 46.5133C6.09194 47.7476 7.30064 48.6103 8.69813 48.8799L8.76419 48.8927C10.0212 49.1352 11.0887 49.9217 11.693 51.0504C12.2972 52.1792 12.3599 53.5035 11.8647 54.6843C11.662 55.1675 11.8895 55.7234 12.3726 55.9261C12.4925 55.9763 12.6167 56.0001 12.739 56.0001C13.1098 56.0001 13.4619 55.7814 13.6141 55.418C14.3312 53.708 14.2406 51.7897 13.3654 50.155C12.4903 48.5203 10.944 47.3811 9.12371 47.0299L9.05765 47.0171C8.20157 46.852 7.46142 46.3237 7.02688 45.5678C6.59233 44.8119 6.50833 43.9065 6.79642 43.0836C7.29299 41.6646 8.77666 40.8301 10.2469 41.1414L26.1986 44.521C28.4105 44.9896 30.6317 43.8092 31.4811 41.7141C32.0034 40.4261 31.9258 38.9852 31.2684 37.7607C30.6111 36.5361 29.453 35.6754 28.0909 35.3989L23.8329 34.5346C23.4094 34.4486 23.2672 34.1187 23.2258 33.9809C23.1921 33.8694 23.1443 33.6165 23.2893 33.3622L51.4965 26.7058L53.6495 28.8588C53.8348 29.0439 54.0777 29.1367 54.3204 29.1367C54.5631 29.1367 54.806 29.0442 54.9913 28.8588C55.3619 28.4881 55.3619 27.8874 54.9915 27.517ZM49.5035 4.42403L40.701 13.2264L31.8984 4.42403H49.5035ZM30.1406 5.34935L39.3593 14.568L24.4459 29.4816L30.1406 5.34935ZM25.7875 30.8233L40.701 15.9097L49.9197 25.1284L25.7875 30.8233ZM50.845 23.3705L42.0425 14.568L50.845 5.76552V23.3705Z" fill="#071F41"/>
</g>
<defs>
<clipPath id="clip0">
<rect width="56" height="56" fill="white" transform="translate(2)"/>
</clipPath>
</defs>
</svg>
